<svg width="48" height="48" fill="none" xmlns="http://www.w3.org/2000/svg"><path d="M0 24C0 10.745 10.745 0 24 0s24 10.745 24 24-10.745 24-24 24S0 37.255 0 24Z" fill="#333"/><path d="M19.2 38.4a4.8 4.8 0 0 0 4.8-4.8v-4.8h-4.8a4.8 4.8 0 0 0 0 9.6Z" fill="#0ACF83"/><path d="M14.4 24a4.8 4.8 0 0 1 4.8-4.8H24v9.6h-4.8a4.8 4.8 0 0 1-4.8-4.8Z" fill="#A259FF"/><path d="M14.4 14.4a4.8 4.8 0 0 1 4.8-4.8H24v9.6h-4.8a4.8 4.8 0 0 1-4.8-4.8Z" fill="#F24E1E"/><path d="M24 9.6h4.8a4.8 4.8 0 1 1 0 9.6H24V9.6Z" fill="#FF7262"/><path d="M33.6 24a4.8 4.8 0 1 1-9.6 0 4.8 4.8 0 0 1 9.6 0Z" fill="#1ABCFE"/></svg>