<svg width="2500" height="2500" fill="none" xmlns="http://www.w3.org/2000/svg"><g clip-path="url(#a)"><path d="m1250 0 1104.79 625v1250L1250 2500 145.208 1875V625L1250 0Z" fill="#fff"/><path d="m2157.5 1831.87-871.04 492.71v-383.75l542.71-298.54 328.33 189.58Zm59.58-53.95V747.5l-318.75 183.958v662.292l318.75 184.17Zm-1878.122 53.95L1210 2324.58v-383.75l-542.708-298.54-328.334 189.58Zm-59.583-53.95V747.5l318.75 183.958v662.292l-318.75 184.17Zm37.292-1097.087L1210 175.417v371.041L637.708 861.25l-4.375 2.5-316.666-182.917Zm1863.123 0-893.33-505.416v371.041l572.29 314.792 4.37 2.5 316.67-182.917Z" fill="#8ED6FB"/><path d="m1210 1853.54-535.417-294.37V975.833L1210 1285v568.54Zm76.46 0 535.41-294.37V975.833L1286.46 1285v568.54ZM710.833 908.333l537.497-295.625 537.5 295.625-537.5 310.417-537.497-310.417" fill="#1C78C0"/></g><defs><clipPath id="a"><path fill="#fff" d="M0 0h2500v2500H0z"/></clipPath></defs></svg>